<?xml version="1.0" encoding="us-ascii" standalone="no"?><svg xmlns="http://www.w3.org/2000/svg" xmlns:xlink="http://www.w3.org/1999/xlink" contentStyleType="text/css" height="448.9583px" preserveAspectRatio="none" style="width:1527px;height:448px;" version="1.1" viewBox="0 0 1527 448" width="1527.0833px" zoomAndPan="magnify"><defs><linearGradient id="g1izhdgeizql170" x1="50%" x2="50%" y1="0%" y2="100%"><stop offset="0%" stop-color="#33B2E2"/><stop offset="100%" stop-color="#009FDB"/></linearGradient></defs><g><!--cluster UI Layer--><g id="cluster_UI Layer"><path d="M312.5,16.6667 L375,16.6667 A15.625,15.625 0 0 1 385.4167,27.0833 L392.7083,54.1341 L622.9167,54.1341 A10.4167,10.4167 0 0 1 633.3333,64.5508 L633.3333,135.3854 A10.4167,10.4167 0 0 1 622.9167,145.8021 L312.5,145.8021 A10.4167,10.4167 0 0 1 302.0833,135.3854 L302.0833,27.0833 A10.4167,10.4167 0 0 1 312.5,16.6667 " fill="none" style="stroke:#33B2E2;stroke-width:2.0833333333333335;"/><line style="stroke:#33B2E2;stroke-width:2.0833333333333335;" x1="302.0833" x2="392.7083" y1="54.1341" y2="54.1341"/><text fill="#009FDB" font-family="Verdana" font-size="12.5" font-weight="bold" lengthAdjust="spacing" textLength="60.4167" x="314.5833" y="38.6861">UI Layer</text></g><!--cluster Application Layer--><g id="cluster_Application Layer"><path d="M27.0833,180.1771 L157.2917,180.1771 A15.625,15.625 0 0 1 167.7083,190.5938 L175,217.6445 L802.0833,217.6445 A10.4167,10.4167 0 0 1 812.5,228.0612 L812.5,298.8958 A10.4167,10.4167 0 0 1 802.0833,309.3125 L27.0833,309.3125 A10.4167,10.4167 0 0 1 16.6667,298.8958 L16.6667,190.5938 A10.4167,10.4167 0 0 1 27.0833,180.1771 " fill="none" style="stroke:#33B2E2;stroke-width:2.0833333333333335;"/><line style="stroke:#33B2E2;stroke-width:2.0833333333333335;" x1="16.6667" x2="175" y1="217.6445" y2="217.6445"/><text fill="#009FDB" font-family="Verdana" font-size="12.5" font-weight="bold" lengthAdjust="spacing" textLength="128.125" x="29.1667" y="202.1965">Application Layer</text></g><!--cluster Queue and Processing--><g id="cluster_Queue and Processing"><path d="M847.9167,180.1771 L1015.625,180.1771 A15.625,15.625 0 0 1 1026.0417,190.5938 L1033.3333,217.6445 L1504.1667,217.6445 A10.4167,10.4167 0 0 1 1514.5833,228.0612 L1514.5833,426.9896 A10.4167,10.4167 0 0 1 1504.1667,437.4063 L847.9167,437.4063 A10.4167,10.4167 0 0 1 837.5,426.9896 L837.5,190.5938 A10.4167,10.4167 0 0 1 847.9167,180.1771 " fill="none" style="stroke:#33B2E2;stroke-width:2.0833333333333335;"/><line style="stroke:#33B2E2;stroke-width:2.0833333333333335;" x1="837.5" x2="1033.3333" y1="217.6445" y2="217.6445"/><text fill="#009FDB" font-family="Verdana" font-size="12.5" font-weight="bold" lengthAdjust="spacing" textLength="165.625" x="850" y="202.1965">Queue and Processing</text></g><!--entity Nginx Load Balancer--><g id="elem_Nginx Load Balancer"><rect fill="url(#g1izhdgeizql170)" height="62.4674" rx="4.1667" ry="4.1667" style="stroke:#33B2E2;stroke-width:1.0416666666666667;" width="190.625" x="319.2708" y="66.6667"/><rect fill="url(#g1izhdgeizql170)" height="10.4167" style="stroke:#33B2E2;stroke-width:1.0416666666666667;" width="15.625" x="489.0625" y="71.875"/><rect fill="url(#g1izhdgeizql170)" height="2.0833" style="stroke:#33B2E2;stroke-width:1.0416666666666667;" width="4.1667" x="486.9792" y="73.9583"/><rect fill="url(#g1izhdgeizql170)" height="2.0833" style="stroke:#33B2E2;stroke-width:1.0416666666666667;" width="4.1667" x="486.9792" y="78.125"/><text fill="#FFFFFF" font-family="Verdana" font-size="12.5" lengthAdjust="spacing" textLength="132.2917" x="343.2292" y="107.4361">Nginx Load Balancer</text></g><!--entity UI--><g id="elem_UI"><rect fill="url(#g1izhdgeizql170)" height="62.4674" rx="4.1667" ry="4.1667" style="stroke:#33B2E2;stroke-width:1.0416666666666667;" width="70.8333" x="545.8333" y="66.6667"/><rect fill="url(#g1izhdgeizql170)" height="10.4167" style="stroke:#33B2E2;stroke-width:1.0416666666666667;" width="15.625" x="595.8333" y="71.875"/><rect fill="url(#g1izhdgeizql170)" height="2.0833" style="stroke:#33B2E2;stroke-width:1.0416666666666667;" width="4.1667" x="593.75" y="73.9583"/><rect fill="url(#g1izhdgeizql170)" height="2.0833" style="stroke:#33B2E2;stroke-width:1.0416666666666667;" width="4.1667" x="593.75" y="78.125"/><text fill="#FFFFFF" font-family="Verdana" font-size="12.5" lengthAdjust="spacing" textLength="12.5" x="569.7917" y="107.4361">UI</text></g><!--entity FastAPI Service Instance 1--><g id="elem_FastAPI Service Instance 1"><rect fill="url(#g1izhdgeizql170)" height="62.4674" rx="4.1667" ry="4.1667" style="stroke:#33B2E2;stroke-width:1.0416666666666667;" width="230.2083" x="32.8125" y="230.1771"/><rect fill="url(#g1izhdgeizql170)" height="10.4167" style="stroke:#33B2E2;stroke-width:1.0416666666666667;" width="15.625" x="242.1875" y="235.3854"/><rect fill="url(#g1izhdgeizql170)" height="2.0833" style="stroke:#33B2E2;stroke-width:1.0416666666666667;" width="4.1667" x="240.1042" y="237.4688"/><rect fill="url(#g1izhdgeizql170)" height="2.0833" style="stroke:#33B2E2;stroke-width:1.0416666666666667;" width="4.1667" x="240.1042" y="241.6354"/><text fill="#FFFFFF" font-family="Verdana" font-size="12.5" lengthAdjust="spacing" textLength="171.875" x="56.7708" y="270.9465">FastAPI Service Instance 1</text></g><!--entity FastAPI Service Instance 2--><g id="elem_FastAPI Service Instance 2"><rect fill="url(#g1izhdgeizql170)" height="62.4674" rx="4.1667" ry="4.1667" style="stroke:#33B2E2;stroke-width:1.0416666666666667;" width="230.2083" x="299.4792" y="230.1771"/><rect fill="url(#g1izhdgeizql170)" height="10.4167" style="stroke:#33B2E2;stroke-width:1.0416666666666667;" width="15.625" x="508.8542" y="235.3854"/><rect fill="url(#g1izhdgeizql170)" height="2.0833" style="stroke:#33B2E2;stroke-width:1.0416666666666667;" width="4.1667" x="506.7708" y="237.4688"/><rect fill="url(#g1izhdgeizql170)" height="2.0833" style="stroke:#33B2E2;stroke-width:1.0416666666666667;" width="4.1667" x="506.7708" y="241.6354"/><text fill="#FFFFFF" font-family="Verdana" font-size="12.5" lengthAdjust="spacing" textLength="171.875" x="323.4375" y="270.9465">FastAPI Service Instance 2</text></g><!--entity FastAPI Service Instance 3--><g id="elem_FastAPI Service Instance 3"><rect fill="url(#g1izhdgeizql170)" height="62.4674" rx="4.1667" ry="4.1667" style="stroke:#33B2E2;stroke-width:1.0416666666666667;" width="230.2083" x="566.1458" y="230.1771"/><rect fill="url(#g1izhdgeizql170)" height="10.4167" style="stroke:#33B2E2;stroke-width:1.0416666666666667;" width="15.625" x="775.5208" y="235.3854"/><rect fill="url(#g1izhdgeizql170)" height="2.0833" style="stroke:#33B2E2;stroke-width:1.0416666666666667;" width="4.1667" x="773.4375" y="237.4688"/><rect fill="url(#g1izhdgeizql170)" height="2.0833" style="stroke:#33B2E2;stroke-width:1.0416666666666667;" width="4.1667" x="773.4375" y="241.6354"/><text fill="#FFFFFF" font-family="Verdana" font-size="12.5" lengthAdjust="spacing" textLength="171.875" x="590.1042" y="270.9465">FastAPI Service Instance 3</text></g><!--entity Redis Queue--><g id="elem_Redis Queue"><rect fill="url(#g1izhdgeizql170)" height="62.4674" rx="4.1667" ry="4.1667" style="stroke:#33B2E2;stroke-width:1.0416666666666667;" width="140.625" x="1356.7708" y="358.2708"/><rect fill="url(#g1izhdgeizql170)" height="10.4167" style="stroke:#33B2E2;stroke-width:1.0416666666666667;" width="15.625" x="1476.5625" y="363.4792"/><rect fill="url(#g1izhdgeizql170)" height="2.0833" style="stroke:#33B2E2;stroke-width:1.0416666666666667;" width="4.1667" x="1474.4792" y="365.5625"/><rect fill="url(#g1izhdgeizql170)" height="2.0833" style="stroke:#33B2E2;stroke-width:1.0416666666666667;" width="4.1667" x="1474.4792" y="369.7292"/><text fill="#FFFFFF" font-family="Verdana" font-size="12.5" lengthAdjust="spacing" textLength="82.2917" x="1380.7292" y="399.0403">Redis Queue</text></g><!--entity Producer Script--><g id="elem_Producer Script"><rect fill="url(#g1izhdgeizql170)" height="62.4674" rx="4.1667" ry="4.1667" style="stroke:#33B2E2;stroke-width:1.0416666666666667;" width="159.375" x="1338.0208" y="230.1771"/><rect fill="url(#g1izhdgeizql170)" height="10.4167" style="stroke:#33B2E2;stroke-width:1.0416666666666667;" width="15.625" x="1476.5625" y="235.3854"/><rect fill="url(#g1izhdgeizql170)" height="2.0833" style="stroke:#33B2E2;stroke-width:1.0416666666666667;" width="4.1667" x="1474.4792" y="237.4688"/><rect fill="url(#g1izhdgeizql170)" height="2.0833" style="stroke:#33B2E2;stroke-width:1.0416666666666667;" width="4.1667" x="1474.4792" y="241.6354"/><text fill="#FFFFFF" font-family="Verdana" font-size="12.5" lengthAdjust="spacing" textLength="101.0417" x="1361.9792" y="270.9465">Producer Script</text></g><!--entity Consumer Script--><g id="elem_Consumer Script"><rect fill="url(#g1izhdgeizql170)" height="62.4674" rx="4.1667" ry="4.1667" style="stroke:#33B2E2;stroke-width:1.0416666666666667;" width="165.625" x="853.6458" y="358.2708"/><rect fill="url(#g1izhdgeizql170)" height="10.4167" style="stroke:#33B2E2;stroke-width:1.0416666666666667;" width="15.625" x="998.4375" y="363.4792"/><rect fill="url(#g1izhdgeizql170)" height="2.0833" style="stroke:#33B2E2;stroke-width:1.0416666666666667;" width="4.1667" x="996.3542" y="365.5625"/><rect fill="url(#g1izhdgeizql170)" height="2.0833" style="stroke:#33B2E2;stroke-width:1.0416666666666667;" width="4.1667" x="996.3542" y="369.7292"/><text fill="#FFFFFF" font-family="Verdana" font-size="12.5" lengthAdjust="spacing" textLength="107.2917" x="877.6042" y="399.0403">Consumer Script</text></g><!--entity Data Directory--><g id="elem_Data Directory"><rect fill="url(#g1izhdgeizql170)" height="62.4674" rx="4.1667" ry="4.1667" style="stroke:#33B2E2;stroke-width:1.0416666666666667;" width="152.0833" x="1111.4583" y="358.2708"/><rect fill="url(#g1izhdgeizql170)" height="10.4167" style="stroke:#33B2E2;stroke-width:1.0416666666666667;" width="15.625" x="1242.7083" y="363.4792"/><rect fill="url(#g1izhdgeizql170)" height="2.0833" style="stroke:#33B2E2;stroke-width:1.0416666666666667;" width="4.1667" x="1240.625" y="365.5625"/><rect fill="url(#g1izhdgeizql170)" height="2.0833" style="stroke:#33B2E2;stroke-width:1.0416666666666667;" width="4.1667" x="1240.625" y="369.7292"/><text fill="#FFFFFF" font-family="Verdana" font-size="12.5" lengthAdjust="spacing" textLength="93.75" x="1135.4167" y="399.0403">Data Directory</text></g><!--link Nginx Load Balancer to UI--><g id="link_Nginx Load Balancer_UI"><path d="M510.2917,97.9063 C522.0208,97.9063 533.7604,97.9063 545.4896,97.9063 " fill="none" id="Nginx Load Balancer-UI" style="stroke:#009FDB;stroke-width:3.125;"/></g><!--link Nginx Load Balancer to FastAPI Service Instance 1--><g id="link_Nginx Load Balancer_FastAPI Service Instance 1"><path d="M355.8854,129.6354 C332.4167,142.2708 305.3021,157.3229 281.25,171.8438 C250.9271,190.1563 222.8938,208.6676 197.2167,226.1676 " fill="none" id="Nginx Load Balancer-to-FastAPI Service Instance 1" style="stroke:#009FDB;stroke-width:3.125;"/><polygon fill="#009FDB" points="192.0521,229.6875,202.1455,227.8507,196.3559,226.7543,197.4524,220.9646,192.0521,229.6875" style="stroke:#009FDB;stroke-width:3.125;"/></g><!--link Nginx Load Balancer to FastAPI Service Instance 2--><g id="link_Nginx Load Balancer_FastAPI Service Instance 2"><path d="M414.5833,129.3125 C414.5833,158.0729 414.5833,194.8021 414.5833,223.625 " fill="none" id="Nginx Load Balancer-to-FastAPI Service Instance 2" style="stroke:#009FDB;stroke-width:3.125;"/><polygon fill="#009FDB" points="414.5833,229.875,418.75,220.5,414.5833,224.6667,410.4167,220.5,414.5833,229.875" style="stroke:#009FDB;stroke-width:3.125;"/></g><!--link Nginx Load Balancer to FastAPI Service Instance 3--><g id="link_Nginx Load Balancer_FastAPI Service Instance 3"><path d="M473.2813,129.6354 C496.75,142.2708 523.8646,157.3229 547.9167,171.8438 C578.2396,190.1563 606.2729,208.6676 631.95,226.1676 " fill="none" id="Nginx Load Balancer-to-FastAPI Service Instance 3" style="stroke:#009FDB;stroke-width:3.125;"/><polygon fill="#009FDB" points="637.1146,229.6875,631.7143,220.9646,632.8108,226.7543,627.0211,227.8507,637.1146,229.6875" style="stroke:#009FDB;stroke-width:3.125;"/></g><!--link Producer Script to Redis Queue--><g id="link_Producer Script_Redis Queue"><path d="M1419.9792,292.9583 C1421.4375,312.625 1422.8686,331.8715 1424.3374,351.5694 " fill="none" id="Producer Script-to-Redis Queue" style="stroke:#009FDB;stroke-width:3.125;"/><polygon fill="#009FDB" points="1424.8021,357.8021,1428.2601,348.1432,1424.4148,352.6082,1419.9499,348.7629,1424.8021,357.8021" style="stroke:#009FDB;stroke-width:3.125;"/></g><!--link Consumer Script to Redis Queue--><g id="link_Consumer Script_Redis Queue"><path d="M1019.6771,359.625 C1048.2188,350.8125 1080.6146,342.3438 1110.9375,337.9583 C1178.2917,328.2188 1196.8021,327.5833 1264.0625,337.9583 C1295.0104,342.7396 1322.2191,350.3184 1350.4796,359.9434 " fill="none" id="Consumer Script-to-Redis Queue" style="stroke:#009FDB;stroke-width:3.125;"/><polygon fill="#009FDB" points="1356.3958,361.9583,1348.8647,354.9917,1351.4656,360.2792,1346.1781,362.88,1356.3958,361.9583" style="stroke:#009FDB;stroke-width:3.125;"/></g><!--link Consumer Script to Data Directory--><g id="link_Consumer Script_Data Directory"><path d="M1019.6979,389.5104 C1049.25,389.5104 1076.0833,389.5104 1105.0104,389.5104 " fill="none" id="Consumer Script-to-Data Directory" style="stroke:#009FDB;stroke-width:3.125;stroke-dasharray:7.0,7.0;"/><polygon fill="#009FDB" points="1111.2604,389.5104,1101.8854,385.3438,1106.0521,389.5104,1101.8854,393.6771,1111.2604,389.5104" style="stroke:#009FDB;stroke-width:3.125;"/><text fill="#5A5A5A" font-family="Verdana" font-size="12.5" lengthAdjust="spacing" textLength="37.5" x="1046.6146" y="375.0715">reads</text></g><!--link Data Directory to Redis Queue--><g id="link_Data Directory_Redis Queue"><path d="M1263.9688,389.5104 C1293.6771,389.5104 1321.2604,389.5104 1350.375,389.5104 " fill="none" id="Data Directory-to-Redis Queue" style="stroke:#009FDB;stroke-width:3.125;stroke-dasharray:7.0,7.0;"/><polygon fill="#009FDB" points="1356.625,389.5104,1347.25,385.3438,1351.4167,389.5104,1347.25,393.6771,1356.625,389.5104" style="stroke:#009FDB;stroke-width:3.125;"/><text fill="#5A5A5A" font-family="Verdana" font-size="12.5" lengthAdjust="spacing" textLength="38.5417" x="1290.8854" y="375.0715">writes</text></g><!--link FastAPI Service Instance 1 to Data Directory--><g id="link_FastAPI Service Instance 1_Data Directory"><path d="M209.5625,293.0729 C231.6458,302.6667 257.0625,312.1563 281.25,317.6458 C609.5104,392.1042 703.5833,315.9271 1037.5,358.2708 C1061.6146,361.3333 1081.5333,364.8086 1105.0333,369.6211 " fill="none" id="FastAPI Service Instance 1-to-Data Directory" style="stroke:#009FDB;stroke-width:3.125;"/><polygon fill="#009FDB" points="1111.1563,370.875,1102.8078,364.9122,1106.0538,369.8301,1101.1359,373.0761,1111.1563,370.875" style="stroke:#009FDB;stroke-width:3.125;"/></g><!--link FastAPI Service Instance 2 to Data Directory--><g id="link_FastAPI Service Instance 2_Data Directory"><path d="M477.3229,293.1146 C499.1771,302.5208 524.1771,311.8958 547.9167,317.6458 C760.125,369.0417 821.3125,327.6563 1037.5,358.2708 C1061.5625,361.6771 1081.4702,365.2597 1104.9806,370.0617 " fill="none" id="FastAPI Service Instance 2-to-Data Directory" style="stroke:#009FDB;stroke-width:3.125;"/><polygon fill="#009FDB" points="1111.1042,371.3125,1102.7527,365.354,1106.0012,370.2702,1101.085,373.5187,1111.1042,371.3125" style="stroke:#009FDB;stroke-width:3.125;"/></g><!--link FastAPI Service Instance 3 to Data Directory--><g id="link_FastAPI Service Instance 3_Data Directory"><path d="M761.2604,293.1354 C785.5208,301.7813 812.4063,310.7083 837.5,317.6458 C840.8333,318.5625 1003.0815,351.3068 1105.0503,371.8589 " fill="none" id="FastAPI Service Instance 3-to-Data Directory" style="stroke:#009FDB;stroke-width:3.125;"/><polygon fill="#009FDB" points="1111.1771,373.0938,1102.8101,367.1569,1106.0714,372.0647,1101.1636,375.326,1111.1771,373.0938" style="stroke:#009FDB;stroke-width:3.125;"/></g><!--SRC=[dP11IyD048Nl-ol6tYlOt7eGgaK85AcMdaeEu-wm7Kntm-ok6iJ_RX9xI0EDslFxtdipxohkwK3mKYQoWhLI5UfNj0IJRGuhh4acyAa0Te-MtGUiF1gumnAT9YbW2hjjNgYldcrHLILhZEpTYVy1GroiSzYGlB4co5s8RGhS5AFoR5pE2dN-kkdjhxqN66UN6hFJfPuI9G9q1jRYDON0pXx7UYR30JgWAsi0ave6s6ZXAXwBXjIzTo4T-fImtSS_eTSDjCI8i6GX7RtKnHo4q8GM7oWTtO-SmxjmfD3-DxRupzs3D3KszNyTsHd7Dm00]--></g></svg>